# File created by Blade
# Date/Time:  Wed Jan 21 17:10:37 2015
# Frame Rate: 120.000 fps
#------------------------------------------------------
:FULLY-SPECIFIED
:DEGREES
1183
root 19.941507 7.603205 -15.771126 -213.771855 -6.753807 -179.767279
Spine 75.601246 5.596937 0.745365
Head 12.433070 -8.133736 7.962982
LeftShoulder 3.061452 -20.438139 0.145150
LeftArm -6.622044 55.687597 -83.392475
LeftForeArm 20.815075 0.000000 -5.157843
LeftHand -2.694037 -0.000000 16.683745
LeftHandThumb1 -26.253704 0.000000 33.147579
RightShoulder 0.262545 -19.284594 6.310497
RightArm 40.625020 -38.479554 48.333256
RightForeArm -33.762554 -0.000000 11.803996
RightHand -7.362285 0.000000 -1.268207
RightHandThumb1 -24.326973 -0.000000 -32.862282
LeftUpLeg -91.588195 2.869218 3.361829
LeftLeg 146.102636 -0.000000 -0.000000
LeftFoot -39.783982 25.695419 -8.884175
LeftToeBase 20.213193 -0.000000 -0.000000
RightUpLeg -89.097103 0.218584 1.751429
RightLeg 148.422316 -0.000000 -0.000000
RightFoot -47.408401 -36.563881 19.594800
RightToeBase 22.335970 -0.000000 -0.000000
1184
root 19.937478 7.576784 -15.830165 -213.097597 -6.340479 -179.773215
Spine 75.718478 5.822044 0.857721
Head 12.302483 -8.105132 7.403473
LeftShoulder 3.169711 -20.588932 0.021627
LeftArm -6.519829 55.429829 -83.337686
LeftForeArm 20.829036 -0.000000 -5.269853
LeftHand -3.154118 0.000000 16.307030
LeftHandThumb1 -26.253704 0.000000 33.147579
RightShoulder 0.156557 -19.197431 6.230069
RightArm 41.258277 -38.932401 47.513134
RightForeArm -34.372044 -0.000000 11.777953
RightHand -7.198024 -0.000000 -1.103178
RightHandThumb1 -24.326973 -0.000000 -32.862282
LeftUpLeg -92.249789 3.393823 3.589402
LeftLeg 146.299277 -0.000000 -0.000000
LeftFoot -40.008266 25.461618 -8.745565
LeftToeBase 20.139894 -0.000000 -0.000000
RightUpLeg -89.856011 0.651846 2.019492
RightLeg 148.505304 -0.000000 -0.000000
RightFoot -47.474233 -36.693061 19.673330
RightToeBase 22.841167 -0.000000 -0.000000
1185
root 19.935570 7.547814 -15.892927 -212.422054 -5.763425 -179.734299
Spine 75.814655 6.111070 1.102849
Head 12.233452 -8.020375 6.743584
LeftShoulder 3.296272 -20.809660 -0.180461
LeftArm -6.617961 55.278947 -83.404263
LeftForeArm 21.081449 -0.000000 -5.283182
LeftHand -3.048069 0.000000 15.732633
LeftHandThumb1 -26.253704 0.000000 33.147579
RightShoulder 0.082636 -19.189821 6.074127
RightArm 41.887349 -39.385310 46.652712
RightForeArm -35.172738 -0.000000 11.844951
RightHand -7.064861 -0.000000 -1.234436
RightHandThumb1 -24.326973 -0.000000 -32.862282
LeftUpLeg -92.892422 4.039239 3.832726
LeftLeg 146.474733 -0.000000 -0.000000
LeftFoot -40.372922 25.609384 -8.763714
LeftToeBase 20.335072 -0.000000 -0.000000
RightUpLeg -90.591754 1.186044 2.397116
RightLeg 148.574333 -0.000000 -0.000000
RightFoot -47.457967 -36.801250 19.562242
RightToeBase 22.687573 -0.000000 -0.000000
1186
root 19.893859 7.523291 -15.946711 -211.702582 -5.412108 -179.761492
Spine 75.865651 6.137610 1.086331
Head 12.216007 -7.839877 5.935232
LeftShoulder 3.270972 -20.891351 -0.421923
LeftArm -6.380469 55.296477 -83.171016
LeftForeArm 21.204304 -0.000000 -5.266362
LeftHand -3.049747 -0.000000 14.658031
LeftHandThumb1 -26.253704 0.000000 33.147579
RightShoulder 0.220636 -19.094981 5.750629
RightArm 42.176147 -39.705574 46.078336
RightForeArm -35.702143 -0.000000 12.083658
RightHand -7.074531 -0.000000 -1.104472
RightHandThumb1 -24.326973 -0.000000 -32.862282
LeftUpLeg -93.528428 4.275023 3.767626
LeftLeg 146.630445 -0.000000 -0.000000
LeftFoot -40.656370 25.954179 -8.772919
LeftToeBase 20.497648 -0.000000 -0.000000
RightUpLeg -91.331119 1.392941 2.359379
RightLeg 148.672377 -0.000000 -0.000000
RightFoot -47.419116 -36.749628 19.260380
RightToeBase 23.348849 -0.000000 -0.000000
1187
root 19.850324 7.507650 -15.987245 -210.922904 -5.061203 -179.992543
Spine 75.903665 6.330411 0.828481
Head 12.215414 -7.569715 5.211514
LeftShoulder 3.221364 -20.922764 -0.589118
LeftArm -6.112198 55.745411 -82.879577
LeftForeArm 21.308255 -0.000000 -5.080303
LeftHand -3.436746 0.000000 13.490245
LeftHandThumb1 -26.253704 0.000000 33.147579
RightShoulder 0.452880 -19.055817 5.432198
RightArm 42.474675 -39.817246 45.642602
RightForeArm -36.088639 -0.000000 12.278598
RightHand -7.002866 0.000000 -1.022480
RightHandThumb1 -24.326973 -0.000000 -32.862282
LeftUpLeg -94.014172 4.573482 3.539106
LeftLeg 146.764419 -0.000000 -0.000000
LeftFoot -41.033766 26.164707 -8.508206
LeftToeBase 20.803616 -0.000000 -0.000000
RightUpLeg -92.168032 1.515369 2.265175
RightLeg 148.731829 -0.000000 -0.000000
RightFoot -47.296107 -37.055948 18.720423
RightToeBase 23.152380 -0.000000 -0.000000
1188
root 19.799877 7.507317 -16.025692 -210.155802 -4.825838 -180.287435
Spine 75.990259 6.506736 0.445639
Head 12.196446 -7.322107 4.627330
LeftShoulder 3.150847 -20.979806 -0.722617
LeftArm -5.777983 56.290833 -82.458871
LeftForeArm 21.251606 -0.000000 -4.805524
LeftHand -3.610924 -0.000000 12.416137
LeftHandThumb1 -26.253704 0.000000 33.147579
RightShoulder 0.755432 -18.859820 5.108810
RightArm 42.557771 -39.914806 45.409879
RightForeArm -36.513939 -0.000000 12.504793
RightHand -7.052611 -0.000000 -0.938834
RightHandThumb1 -24.326973 -0.000000 -32.862282
LeftUpLeg -94.340606 4.754850 3.107383
LeftLeg 146.840972 -0.000000 -0.000000
LeftFoot -41.530000 26.574539 -8.022825
LeftToeBase 21.545551 -0.000000 -0.000000
RightUpLeg -92.896208 1.626557 1.916558
RightLeg 148.801195 -0.000000 -0.000000
RightFoot -47.424239 -36.781201 18.643982
RightToeBase 23.695873 -0.000000 -0.000000
1189
root 19.758156 7.500160 -16.076897 -209.307076 -4.545409 -180.639041
Spine 75.919423 6.861913 0.119767
Head 12.277575 -7.207043 4.237486
LeftShoulder 3.141600 -21.050381 -0.862983
LeftArm -5.640414 57.063030 -82.138315
LeftForeArm 21.104104 0.000000 -4.435444
LeftHand -3.800229 -0.000000 11.613159
LeftHandThumb1 -26.253704 0.000000 33.147579
RightShoulder 0.942104 -18.036224 4.914271
RightArm 42.021536 -40.576368 45.583846
RightForeArm -37.096021 -0.000000 12.678125
RightHand -6.602293 0.000000 -0.697672
RightHandThumb1 -24.326973 -0.000000 -32.862282
LeftUpLeg -94.699050 5.057795 2.699596
LeftLeg 146.928298 -0.000000 -0.000000
LeftFoot -41.985712 26.734137 -8.007998
LeftToeBase 21.524709 -0.000000 -0.000000
RightUpLeg -93.750941 1.885730 1.577229
RightLeg 148.929063 -0.000000 -0.000000
RightFoot -47.462144 -36.704320 18.485314
RightToeBase 23.625466 -0.000000 -0.000000
1190
root 19.723384 7.505660 -16.126651 -208.438972 -4.271432 -181.006536
Spine 75.843543 7.331346 -0.127742
Head 12.376064 -7.225339 4.083047
LeftShoulder 3.156092 -21.039174 -0.999295
LeftArm -5.171579 57.917056 -81.507214
LeftForeArm 20.679413 -0.000000 -4.081418
LeftHand -4.113082 -0.000000 10.647260
LeftHandThumb1 -26.253704 0.000000 33.147579
RightShoulder 1.055400 -17.683194 4.809820
RightArm 41.983900 -40.898193 45.400561
RightForeArm -37.538033 -0.000000 12.849454
RightHand -6.638859 0.000000 -0.402504
RightHandThumb1 -24.326973 -0.000000 -32.862282
LeftUpLeg -94.983688 5.365680 2.363122
LeftLeg 146.911016 -0.000000 -0.000000
LeftFoot -42.592620 27.207359 -8.120051
LeftToeBase 22.635477 -0.000000 -0.000000
RightUpLeg -94.576676 2.185542 1.251169
RightLeg 149.033060 -0.000000 -0.000000
RightFoot -47.488915 -36.515266 18.417472
RightToeBase 24.251066 -0.000000 -0.000000
1191
root 19.690400 7.529972 -16.174282 -207.603808 -3.941919 -181.414729
Spine 75.804809 7.886839 -0.414920
Head 12.494875 -7.202060 4.030175
LeftShoulder 3.109514 -20.982418 -1.130394
LeftArm -4.488500 58.680751 -80.580763
LeftForeArm 20.095496 -0.000000 -3.603070
LeftHand -4.164157 0.000000 9.510520
LeftHandThumb1 -26.253704 0.000000 33.147579
RightShoulder 1.221554 -17.463292 4.682308
RightArm 42.198005 -41.244738 45.022491
RightForeArm -37.934885 -0.000000 12.879451
RightHand -6.173805 -0.000000 -0.463518
RightHandThumb1 -24.326973 -0.000000 -32.862282
LeftUpLeg -95.108089 5.719802 2.120428
LeftLeg 146.845305 -0.000000 -0.000000
LeftFoot -43.354773 27.693198 -8.435067
LeftToeBase 23.537054 -0.000000 -0.000000
RightUpLeg -95.324564 2.553094 0.881538
RightLeg 149.084959 -0.000000 -0.000000
RightFoot -47.541959 -36.375818 18.355733
RightToeBase 24.310890 -0.000000 -0.000000
1192
root 19.658417 7.577680 -16.219627 -206.809662 -3.588246 -181.841174
Spine 75.818095 8.515045 -0.683470
Head 12.637020 -7.158403 4.132399
LeftShoulder 3.086391 -20.842281 -1.320663
LeftArm -3.513966 59.440071 -79.358991
LeftForeArm 19.481166 0.000000 -3.161029
LeftHand -4.241654 -0.000000 8.569673
LeftHandThumb1 -26.253704 0.000000 33.147579
RightShoulder 1.406469 -17.285531 4.577244
RightArm 42.584887 -41.597231 44.464467
RightForeArm -38.320026 -0.000000 12.888856
RightHand -5.923858 -0.000000 -0.337811
RightHandThumb1 -24.326973 -0.000000 -32.862282
LeftUpLeg -95.135162 6.082785 1.822458
LeftLeg 146.723687 -0.000000 -0.000000
LeftFoot -44.105738 28.053038 -8.861973
LeftToeBase 24.570949 -0.000000 -0.000000
RightUpLeg -95.965069 2.951456 0.521377
RightLeg 149.074877 -0.000000 -0.000000
RightFoot -47.621149 -36.195190 18.463707
RightToeBase 24.771547 -0.000000 -0.000000
